<?xml version="1.0" encoding="UTF-8" standalone="no"?>
<!-- Created with Inkscape (http://www.inkscape.org/) -->

<svg
   xmlns:dc="http://purl.org/dc/elements/1.1/"
   xmlns:cc="http://creativecommons.org/ns#"
   xmlns:rdf="http://www.w3.org/1999/02/22-rdf-syntax-ns#"
   xmlns:svg="http://www.w3.org/2000/svg"
   xmlns="http://www.w3.org/2000/svg"
   xmlns:sodipodi="http://sodipodi.sourceforge.net/DTD/sodipodi-0.dtd"
   xmlns:inkscape="http://www.inkscape.org/namespaces/inkscape"
   id="svg4633"
   version="1.1"
   viewBox="0 0 132.29166 132.29167"
   height="500"
   width="500"
   inkscape:version="0.92.2 5c3e80d, 2017-08-06"
   sodipodi:docname="Replicat6.svg">
  <sodipodi:namedview
     units="px"
     showgrid="false"
     inkscape:current-layer="layer1"
     inkscape:document-units="mm"
     inkscape:cy="212.18873"
     inkscape:cx="184.09494"
     inkscape:zoom="1.4"
     inkscape:pageshadow="2"
     inkscape:pageopacity="0.0"
     borderopacity="1.0"
     bordercolor="#666666"
     pagecolor="#ffffff"
     id="base" />
  <defs
     id="defs4627">
    <marker
       inkscape:stockid="Arrow1Lend"
       orient="auto"
       refY="0"
       refX="0"
       id="Arrow1Lend"
       style="overflow:visible"
       inkscape:isstock="true">
      <path
         inkscape:connector-curvature="0"
         id="path928"
         d="M 0,0 5,-5 -12.5,0 5,5 Z"
         style="fill:#000000;fill-opacity:1;fill-rule:evenodd;stroke:#000000;stroke-width:1.00000003pt;stroke-opacity:1"
         transform="matrix(-0.8,0,0,-0.8,-10,0)" />
    </marker>
  </defs>
  <metadata
     id="metadata4630">
    <rdf:RDF>
      <cc:Work
         rdf:about="">
        <dc:format>image/svg+xml</dc:format>
        <dc:type
           rdf:resource="http://purl.org/dc/dcmitype/StillImage" />
        <dc:title></dc:title>
      </cc:Work>
    </rdf:RDF>
  </metadata>
  <g
     transform="translate(0,-164.70832)"
     id="layer1"
     inkscape:groupmode="layer"
     inkscape:label="Calque 1">
    <g
       transform="translate(66.585298,-88.844516)"
       id="layer1-9"
       inkscape:label="Calque 1">
      <ellipse
         style="opacity:1;fill:#ff0000;fill-opacity:1;stroke:none;stroke-width:1.35255575;stroke-linecap:round;stroke-linejoin:round;stroke-miterlimit:4;stroke-dasharray:none;stroke-dashoffset:1.99999988;stroke-opacity:0.3041237"
         id="path9800"
         cx="-51.781483"
         cy="319.69867"
         rx="6.7654533"
         ry="6.770431" />
      <text
         xml:space="preserve"
         style="font-style:normal;font-weight:normal;font-size:32.38378143px;line-height:1.25;font-family:sans-serif;letter-spacing:0px;word-spacing:0px;fill:#ffffff;fill-opacity:1;stroke:none;stroke-width:0.80959451"
         x="-193.45511"
         y="129.07126"
         id="text1256"><tspan
           sodipodi:role="line"
           id="tspan1254"
           x="-193.45511"
           y="157.72331"
           style="font-style:normal;font-variant:normal;font-weight:normal;font-stretch:normal;font-size:12.95351219px;font-family:Courier;-inkscape-font-specification:Courier;fill:#ffffff;stroke-width:0.80959451" /></text>
      <text
         xml:space="preserve"
         style="font-style:normal;font-weight:normal;font-size:32.38378143px;line-height:1.25;font-family:sans-serif;letter-spacing:0px;word-spacing:0px;fill:#cccccc;fill-opacity:1;stroke:none;stroke-width:0.80959451"
         x="-49.614548"
         y="89.411156"
         id="text1524"><tspan
           sodipodi:role="line"
           id="tspan1522"
           x="-49.614548"
           y="118.06321"
           style="font-style:normal;font-variant:normal;font-weight:normal;font-stretch:normal;font-size:12.95351219px;font-family:Helvetica;-inkscape-font-specification:Helvetica;fill:#cccccc;fill-opacity:1;stroke-width:0.80959451" /></text>
    </g>
    <path
       id="path5178"
       d="m 116.39251,230.85416 a 50.24667,50.24667 0 0 1 -50.246674,50.24667 50.24667,50.24667 0 0 1 -50.24667,-50.24667 50.24667,50.24667 0 0 1 50.24667,-50.24667 50.24667,50.24667 0 0 1 50.246674,50.24667 z"
       style="opacity:1;fill:#000000;fill-opacity:0;stroke:#191919;stroke-width:0.79374999;stroke-linecap:round;stroke-linejoin:round;stroke-miterlimit:4;stroke-dasharray:none;stroke-dashoffset:0;stroke-opacity:1" />
    <g
       id="g6425"
       transform="translate(-2.4010416e-5,-7.4537817e-5)">
      <path
         id="path6365"
         style="opacity:1;fill:#000000;fill-opacity:0;stroke:#000000;stroke-width:0.79374999;stroke-linecap:round;stroke-linejoin:miter;stroke-miterlimit:4;stroke-dasharray:none;stroke-opacity:1"
         d="m 66.145835,204.52811 c 0,0 0,2.5732 -1e-6,6.58188 0,1.90909 -10e-7,4.14376 -10e-7,6.58112 0,2.07222 -10e-7,4.29095 -10e-7,6.58067 -10e-7,2.15237 -10e-7,4.36748 -10e-7,6.58258 0,2.21498 0,4.42996 10e-7,6.58222 0,2.29004 10e-7,4.50907 10e-7,6.58155 0,2.43742 10e-7,4.67212 10e-7,6.58119 1e-6,4.00811 1e-6,6.58088 1e-6,6.58088 0,0 0,0 0,0"
         inkscape:connector-curvature="0" />
      <path
         id="path6367"
         style="opacity:1;fill:#000000;fill-opacity:0;stroke:#000000;stroke-width:0.79374999;stroke-linecap:round;stroke-linejoin:miter;stroke-miterlimit:4;stroke-dasharray:none;stroke-opacity:1"
         d="m 66.145889,204.52814 c 0,1e-5 -6e-6,2.57322 -1.6e-5,6.58191 -1.1e-5,1.9091 -2.5e-5,4.14377 -4e-5,6.58113 -1.5e-5,2.07222 -2.9e-5,4.29094 -4e-5,6.58064 -1e-5,2.15237 -1.6e-5,4.36745 -1.6e-5,6.58254 0,2.21496 6e-6,4.42992 1.6e-5,6.58217 1.1e-5,2.29003 2.5e-5,4.50906 4e-5,6.58153 1.5e-5,2.43742 2.9e-5,4.67212 4e-5,6.5812 1e-5,4.00812 1.6e-5,6.5809 1.6e-5,6.58091 0,0 0,0 0,0"
         inkscape:connector-curvature="0" />
      <path
         id="path6369"
         style="opacity:1;fill:#000000;fill-opacity:0;stroke:#000000;stroke-width:0.79374999;stroke-linecap:round;stroke-linejoin:miter;stroke-miterlimit:4;stroke-dasharray:none;stroke-opacity:1"
         d="m 66.146259,204.52833 c 0,1.2e-4 -4.4e-5,2.5734 -1.24e-4,6.58212 -8e-5,1.90916 -1.89e-4,4.14386 -3.02e-4,6.58119 -1.13e-4,2.07221 -2.22e-4,4.29088 -3.02e-4,6.58049 -8e-5,2.15228 -1.24e-4,4.36726 -1.24e-4,6.58223 0,2.21485 4.4e-5,4.4297 1.24e-4,6.58186 8e-5,2.28994 1.89e-4,4.50891 3.02e-4,6.58137 1.13e-4,2.4374 2.22e-4,4.67212 3.02e-4,6.58126 8e-5,4.00816 1.24e-4,6.58101 1.24e-4,6.58113 0,0 0,0 0,0"
         inkscape:connector-curvature="0" />
      <path
         id="path6371"
         style="opacity:1;fill:#000000;fill-opacity:0;stroke:#000000;stroke-width:0.79374999;stroke-linecap:round;stroke-linejoin:miter;stroke-miterlimit:4;stroke-dasharray:none;stroke-opacity:1"
         d="m 66.14763,204.52905 c 0,4.8e-4 -1.89e-4,2.57404 -5.26e-4,6.58291 -3.37e-4,1.90937 -7.94e-4,4.14414 -0.0013,6.58141 -4.77e-4,2.07215 -9.34e-4,4.29061 -0.0013,6.57991 -3.37e-4,2.15196 -5.26e-4,4.36653 -5.26e-4,6.58108 0,2.21442 1.89e-4,4.42887 5.26e-4,6.58071 3.37e-4,2.28963 7.94e-4,4.50839 0.0013,6.58079 4.77e-4,2.43733 9.34e-4,4.67214 0.0013,6.58148 3.37e-4,4.00831 5.26e-4,6.58144 5.26e-4,6.58192 0,0 0,0 0,0"
         inkscape:connector-curvature="0" />
      <path
         id="path6373"
         style="opacity:1;fill:#000000;fill-opacity:0;stroke:#000000;stroke-width:0.79374999;stroke-linecap:round;stroke-linejoin:miter;stroke-miterlimit:4;stroke-dasharray:none;stroke-opacity:1"
         d="m 66.151318,204.53098 c 0,0.001 -5.78e-4,2.57577 -0.0016,6.58504 -10e-4,1.90991 -0.0024,4.14492 -0.0039,6.58201 -0.0015,2.07199 -0.0028,4.2899 -0.0039,6.57834 -0.001,2.15112 -0.0016,4.36458 -0.0016,6.57799 0,2.21328 5.78e-4,4.42663 0.0016,6.57762 10e-4,2.28877 0.0024,4.50698 0.0039,6.57923 0.0015,2.43715 0.0029,4.67218 0.0039,6.58208 0.001,4.0087 0.0016,6.58258 0.0016,6.58404 0,0 0,0 0,0"
         inkscape:connector-curvature="0" />
      <path
         id="path6375"
         style="opacity:1;fill:#000000;fill-opacity:0;stroke:#000000;stroke-width:0.79374999;stroke-linecap:round;stroke-linejoin:miter;stroke-miterlimit:4;stroke-dasharray:none;stroke-opacity:1"
         d="m 66.159481,204.53526 c 0,0.004 -0.0014,2.57959 -0.004,6.58974 -0.0026,1.91113 -0.006,4.14663 -0.0097,6.58333 -0.0036,2.07166 -0.0071,4.28835 -0.0096,6.57489 -0.0026,2.14923 -0.004,4.36026 -0.004,6.57114 0,2.21076 0.0014,4.42166 0.004,6.57078 0.0026,2.28686 0.006,4.50386 0.0096,6.57577 0.0036,2.43675 0.0071,4.67228 0.0097,6.5834 0.0026,4.00958 0.004,6.58512 0.004,6.58874 0,0 0,0 0,0"
         inkscape:connector-curvature="0" />
      <path
         id="path6377"
         style="opacity:1;fill:#000000;fill-opacity:0;stroke:#000000;stroke-width:0.79374999;stroke-linecap:round;stroke-linejoin:miter;stroke-miterlimit:4;stroke-dasharray:none;stroke-opacity:1"
         d="m 66.175331,204.54356 c 0,0.008 -0.0031,2.58702 -0.0086,6.59887 -0.0055,1.91351 -0.01304,4.14998 -0.02086,6.5859 -0.0078,2.07101 -0.01533,4.28533 -0.02086,6.56817 -0.0055,2.14558 -0.0086,4.35188 -0.0086,6.55786 0,2.20585 0.0031,4.41203 0.0086,6.5575 0.0055,2.28316 0.01303,4.49779 0.02086,6.56904 0.0078,2.43599 0.01533,4.67249 0.02086,6.58597 0.0055,4.01129 0.0086,6.59005 0.0086,6.59788 0,0 0,0 0,0"
         inkscape:connector-curvature="0" />
      <path
         id="path6379"
         style="opacity:1;fill:#000000;fill-opacity:0;stroke:#000000;stroke-width:0.79374999;stroke-linecap:round;stroke-linejoin:miter;stroke-miterlimit:4;stroke-dasharray:none;stroke-opacity:1"
         d="m 66.203344,204.55824 c 0,0.0152 -0.0061,2.60013 -0.01685,6.61501 -0.01078,1.91769 -0.02541,4.15587 -0.04067,6.59043 -0.01525,2.06985 -0.02988,4.27999 -0.04067,6.5563 -0.01079,2.13912 -0.01684,4.33706 -0.01684,6.53438 0,2.19719 0.0061,4.39501 0.01684,6.53402 0.01078,2.27663 0.02541,4.48707 0.04067,6.55717 0.01525,2.43463 0.02988,4.67283 0.04067,6.5905 0.01079,4.01431 0.01685,6.59877 0.01685,6.61402 0,0 0,0 0,0"
         inkscape:connector-curvature="0" />
      <path
         id="path6381"
         style="opacity:1;fill:#000000;fill-opacity:0;stroke:#000000;stroke-width:0.79374999;stroke-linecap:round;stroke-linejoin:miter;stroke-miterlimit:4;stroke-dasharray:none;stroke-opacity:1"
         d="m 66.249469,204.58241 c 0,0.0275 -0.01092,2.62173 -0.03035,6.64158 -0.01944,1.92459 -0.0458,4.16557 -0.07328,6.5979 -0.02749,2.06795 -0.05385,4.27119 -0.07328,6.53675 -0.01944,2.1285 -0.03035,4.31267 -0.03035,6.49572 0,2.18292 0.01092,4.36697 0.03035,6.49536 0.01944,2.26588 0.0458,4.46942 0.07328,6.53762 0.02749,2.43239 0.05385,4.6734 0.07328,6.59797 0.01944,4.01928 0.03035,6.61311 0.03035,6.64059 0,0 0,0 0,0"
         inkscape:connector-curvature="0" />
      <path
         id="path6383"
         style="opacity:1;fill:#000000;fill-opacity:0;stroke:#000000;stroke-width:0.79374999;stroke-linecap:round;stroke-linejoin:miter;stroke-miterlimit:4;stroke-dasharray:none;stroke-opacity:1"
         d="m 66.321342,204.62007 c 0,0.0465 -0.01849,2.65539 -0.05141,6.68298 -0.03291,1.93534 -0.07756,4.1807 -0.124103,6.60954 -0.04655,2.06499 -0.09119,4.25748 -0.124103,6.50628 -0.03292,2.11195 -0.05141,4.27467 -0.05141,6.43549 0,2.16069 0.01849,4.3233 0.05141,6.43512 0.03291,2.24913 0.07755,4.44192 0.124103,6.50716 0.04655,2.42891 0.09119,4.67429 0.124103,6.60961 0.03292,4.02702 0.05141,6.63545 0.05141,6.68199 0,0 0,0 0,0"
         inkscape:connector-curvature="0" />
      <path
         id="path6385"
         style="opacity:1;fill:#000000;fill-opacity:0;stroke:#000000;stroke-width:0.79374999;stroke-linecap:round;stroke-linejoin:miter;stroke-miterlimit:4;stroke-dasharray:none;stroke-opacity:1"
         d="m 66.428492,204.67621 c 0,0.075 -0.02978,2.70558 -0.08279,6.74471 -0.05301,1.95137 -0.124904,4.20325 -0.19987,6.62689 -0.07497,2.06057 -0.146861,4.23704 -0.19987,6.46087 -0.05301,2.08725 -0.08279,4.218 -0.08279,6.34568 0,2.12755 0.02978,4.25818 0.08279,6.34532 0.05301,2.22415 0.124904,4.40092 0.19987,6.46174 0.07497,2.42371 0.146861,4.67561 0.19987,6.62695 0.05301,4.03858 0.08279,6.66877 0.08279,6.74373 0,0 0,0 0,0"
         inkscape:connector-curvature="0" />
      <path
         id="path6387"
         style="opacity:1;fill:#000000;fill-opacity:0;stroke:#000000;stroke-width:0.79374999;stroke-linecap:round;stroke-linejoin:miter;stroke-miterlimit:4;stroke-dasharray:none;stroke-opacity:1"
         d="m 66.582555,204.75692 c 0,0.11583 -0.04601,2.77774 -0.127913,6.83348 -0.0819,1.9744 -0.192983,4.23566 -0.308809,6.65184 -0.115826,2.05421 -0.226908,4.20764 -0.308809,6.39556 -0.0819,2.05176 -0.127913,4.13653 -0.127913,6.21655 0,2.07991 0.04601,4.16456 0.127913,6.21621 0.0819,2.18823 0.192983,4.34197 0.308809,6.39643 0.115826,2.41624 0.226908,4.67752 0.308809,6.6519 0.0819,4.05518 0.127913,6.71667 0.127913,6.8325 0,0 0,0 0,0"
         inkscape:connector-curvature="0" />
      <path
         id="path6389"
         style="opacity:1;fill:#000000;fill-opacity:0;stroke:#000000;stroke-width:0.79374999;stroke-linecap:round;stroke-linejoin:miter;stroke-miterlimit:4;stroke-dasharray:none;stroke-opacity:1"
         d="m 66.797485,204.86953 c 0,0.17283 -0.06866,2.87841 -0.190865,6.95731 -0.122208,2.00654 -0.287958,4.28088 -0.460787,6.68663 -0.172829,2.04535 -0.338579,4.16665 -0.460787,6.30446 -0.122209,2.00225 -0.190865,4.02288 -0.190865,6.03642 0,2.01343 0.06866,4.03393 0.190865,6.03607 0.122208,2.13814 0.287958,4.25974 0.460787,6.30533 0.172829,2.40581 0.338579,4.68018 0.460787,6.68671 0.122209,4.07833 0.190865,6.78349 0.190865,6.95632 0,0 0,0 0,0"
         inkscape:connector-curvature="0" />
      <path
         id="path6391"
         style="opacity:1;fill:#000000;fill-opacity:0;stroke:#000000;stroke-width:0.79374999;stroke-linecap:round;stroke-linejoin:miter;stroke-miterlimit:4;stroke-dasharray:none;stroke-opacity:1"
         d="m 67.089761,205.02267 c 0,0.25034 -0.09945,3.01529 -0.27647,7.12568 -0.177021,2.05026 -0.417113,4.3424 -0.667458,6.73396 -0.250345,2.0333 -0.490437,4.1109 -0.667458,6.18058 -0.177021,1.93492 -0.27647,3.86832 -0.27647,5.79146 0,1.92303 0.09945,3.85631 0.27647,5.79111 0.177021,2.07 0.417113,4.1479 0.667458,6.18144 0.250345,2.39163 0.490437,4.6838 0.667458,6.73403 0.177021,4.10984 0.27647,6.87437 0.27647,7.12471 0,0 0,0 0,0"
         inkscape:connector-curvature="0" />
      <path
         id="path6393"
         style="opacity:1;fill:#000000;fill-opacity:0;stroke:#000000;stroke-width:0.79374999;stroke-linecap:round;stroke-linejoin:miter;stroke-miterlimit:4;stroke-dasharray:none;stroke-opacity:1"
         d="m 67.478603,205.2264 c 0,0.35347 -0.140417,3.19741 -0.390359,7.3497 -0.249943,2.1084 -0.588938,4.42421 -0.942411,6.79692 -0.353472,2.01726 -0.692468,4.03672 -0.94241,6.01576 -0.249943,1.84534 -0.39036,3.6627 -0.39036,5.46557 0,1.80276 0.140417,3.61999 0.39036,5.46522 0.249942,1.97936 0.588938,3.99912 0.94241,6.01662 0.353473,2.37277 0.692468,4.68861 0.942411,6.79699 0.249942,4.15174 0.390359,6.99526 0.390359,7.34873 0,0 0,0 0,0"
         inkscape:connector-curvature="0" />
      <path
         id="path6395"
         style="opacity:1;fill:#000000;fill-opacity:0;stroke:#000000;stroke-width:0.79374999;stroke-linecap:round;stroke-linejoin:miter;stroke-miterlimit:4;stroke-dasharray:none;stroke-opacity:1"
         d="m 67.986176,205.49233 c 0,0.48809 -0.193893,3.43514 -0.539024,7.64213 -0.345131,2.1843 -0.81323,4.53102 -1.301319,6.8791 -0.488089,1.99633 -0.956188,3.9399 -1.301319,5.80062 -0.345131,1.72841 -0.539024,3.39429 -0.539024,5.04017 0,1.64577 0.193893,3.31152 0.539024,5.03982 0.345131,1.86104 0.81323,3.8049 1.301319,5.80147 0.488089,2.34815 0.956188,4.69489 1.301319,6.87917 0.345131,4.20644 0.539024,7.15308 0.539024,7.64117 0,0 0,0 0,0"
         inkscape:connector-curvature="0" />
      <path
         id="path6397"
         style="opacity:1;fill:#000000;fill-opacity:0;stroke:#010101;stroke-width:0.79374999;stroke-linecap:round;stroke-linejoin:miter;stroke-miterlimit:4;stroke-dasharray:none;stroke-opacity:1"
         d="m 68.637807,205.83375 c 0,0.66091 -0.262547,3.74033 -0.729882,8.01753 -0.467336,2.28175 -1.101179,4.66814 -1.762092,6.98462 -0.660912,1.96945 -1.294756,3.8156 -1.762091,5.52442 -0.467336,1.57829 -0.729882,3.0497 -0.729882,4.49403 0,1.44421 0.262546,2.9155 0.729882,4.49368 0.467335,1.70914 1.101179,3.55557 1.762091,5.52526 0.660913,2.31654 1.294756,4.70295 1.762092,6.98468 0.467335,4.27667 0.729882,7.35568 0.729882,8.0166 0,0 0,0 0,0"
         inkscape:connector-curvature="0" />
      <path
         id="path6399"
         style="opacity:1;fill:#000000;fill-opacity:0;stroke:#010101;stroke-width:0.79374999;stroke-linecap:round;stroke-linejoin:miter;stroke-miterlimit:4;stroke-dasharray:none;stroke-opacity:1"
         d="m 69.462191,206.26567 c 0,0.87955 -0.349401,4.12644 -0.971339,8.49248 -0.621937,2.40503 -1.465466,4.84161 -2.345019,7.1181 -0.879552,1.93545 -1.723081,3.65834 -2.345019,5.17499 -0.621937,1.38838 -0.971338,2.61376 -0.971338,3.8031 0,1.18924 0.349401,2.4145 0.971338,3.80277 0.621938,1.51696 1.465467,3.24013 2.345019,5.17582 0.879553,2.27655 1.723082,4.71315 2.345019,7.11816 0.621938,4.36551 0.971339,7.612 0.971339,8.49155 0,0 0,0 0,0"
         inkscape:connector-curvature="0" />
      <path
         id="path6401"
         style="opacity:1;fill:#000000;fill-opacity:0;stroke:#020202;stroke-width:0.79374999;stroke-linecap:round;stroke-linejoin:miter;stroke-miterlimit:4;stroke-dasharray:none;stroke-opacity:1"
         d="m 70.491604,206.80502 c 0,1.15257 -0.457856,4.60857 -1.272846,9.08554 -0.814991,2.55897 -1.920355,5.05822 -3.072925,7.28477 -1.15257,1.893 -2.257934,3.46198 -3.072924,4.73867 -0.81499,1.15123 -1.272847,2.06939 -1.272847,2.94034 0,0.87084 0.457857,1.78889 1.272847,2.94001 0.81499,1.27699 1.920354,2.84624 3.072924,4.73947 1.15257,2.22661 2.257934,4.72589 3.072925,7.28484 0.81499,4.47645 1.272846,7.93206 1.272846,9.08463 0,0 0,0 0,0"
         inkscape:connector-curvature="0" />
      <path
         id="path6403"
         style="opacity:1;fill:#000000;fill-opacity:0;stroke:#020202;stroke-width:0.79374999;stroke-linecap:round;stroke-linejoin:miter;stroke-miterlimit:4;stroke-dasharray:none;stroke-opacity:1"
         d="m 71.762114,207.47068 c 0,1.48953 -0.591713,5.20363 -1.64497,9.8175 -1.053257,2.74897 -2.48178,5.32557 -3.971311,7.4905 -1.48953,1.8406 -2.918053,3.21962 -3.97131,4.20015 -1.053257,0.85854 -1.64497,1.39752 -1.64497,1.8755 0,0.47788 0.591713,1.01676 1.64497,1.87519 1.053257,0.98082 2.48178,2.36011 3.97131,4.20094 1.489531,2.16498 2.918054,4.74161 3.971311,7.49055 1.053257,4.61337 1.64497,8.32709 1.64497,9.81662 0,0 0,0 0,0"
         inkscape:connector-curvature="0" />
      <path
         id="path6405"
         style="opacity:1;fill:#000000;fill-opacity:0;stroke:#030303;stroke-width:0.79374999;stroke-linecap:round;stroke-linejoin:miter;stroke-miterlimit:4;stroke-dasharray:none;stroke-opacity:1"
         d="m 73.313789,208.28366 c 0,1.90106 -0.755193,5.93037 -2.099445,10.71145 -1.344253,2.981 -3.167451,5.65208 -5.068511,7.74173 -1.90106,1.77661 -3.724257,2.92363 -5.068509,3.54246 -1.344253,0.50107 -2.099446,0.57698 -2.099446,0.57503 0,-0.002 0.755193,0.0737 2.099446,0.57472 1.344252,0.6191 3.167449,1.76639 5.068509,3.54321 1.90106,2.08971 3.724258,4.76081 5.068511,7.7418 1.344252,4.78058 2.099445,8.80953 2.099445,10.71059 0,0 0,0 0,0"
         inkscape:connector-curvature="0" />
      <path
         id="path6407"
         style="opacity:1;fill:#000000;fill-opacity:0;stroke:#040404;stroke-width:0.79374999;stroke-linecap:round;stroke-linejoin:miter;stroke-miterlimit:4;stroke-dasharray:none;stroke-opacity:1"
         d="m 75.19091,209.26715 c 0,2.39891 -0.95296,6.80954 -2.649241,11.79289 -1.696281,3.26171 -3.996932,6.04707 -6.395835,8.04567 -2.398904,1.69919 -4.699554,2.56556 -6.395835,2.74682 -1.696281,0.0686 -2.649241,-0.41566 -2.649241,-0.99821 0,-0.58265 0.95296,-1.06704 2.649241,-0.9985 1.696281,0.18152 3.996931,1.04814 6.395835,2.74754 2.398903,1.99865 4.699554,4.78404 6.395835,8.04573 1.696281,4.98288 2.649241,9.39317 2.649241,11.79207 0,0 0,0 0,0"
         inkscape:connector-curvature="0" />
      <path
         id="path6409"
         style="opacity:1;fill:#000000;fill-opacity:0;stroke:#050505;stroke-width:0.79374999;stroke-linecap:round;stroke-linejoin:miter;stroke-miterlimit:4;stroke-dasharray:none;stroke-opacity:1"
         d="m 77.442181,210.44667 c 0,2.99598 -1.190148,7.86395 -3.308624,13.08988 -2.118476,3.59837 -4.991746,6.5208 -7.987723,8.41019 -2.995978,1.60635 -5.869247,2.13612 -7.987723,1.7926 -2.118476,-0.45 -3.308624,-1.60616 -3.308624,-2.88503 0,-1.27896 1.190148,-2.43522 3.308624,-2.8853 2.118476,-0.34328 4.991745,0.18673 7.987723,1.79328 2.995977,1.88944 5.869247,4.81189 7.987723,8.41024 2.118476,5.2255 3.308624,10.09313 3.308624,13.08911 0,0 0,0 0,0"
         inkscape:connector-curvature="0" />
      <path
         id="path6411"
         style="opacity:1;fill:#000000;fill-opacity:0;stroke:#060606;stroke-width:0.79374999;stroke-linecap:round;stroke-linejoin:miter;stroke-miterlimit:4;stroke-dasharray:none;stroke-opacity:1"
         d="m 80.120938,211.85017 c 0,3.70643 -1.472373,9.11857 -4.093213,14.63315 -2.620841,3.99896 -6.175463,7.08447 -9.881891,8.84393 -3.706428,1.49587 -7.26105,1.62514 -9.88189,0.65717 -2.620841,-1.0671 -4.093213,-3.02271 -4.093213,-5.13012 0,-2.1075 1.472372,-4.06319 4.093213,-5.13038 2.62084,-0.96773 6.175462,-0.83824 9.88189,0.65781 3.706428,1.7595 7.26105,4.84504 9.881891,8.84398 2.62084,5.51417 4.093213,10.926 4.093213,14.63243 0,0 0,0 0,0"
         inkscape:connector-curvature="0" />
      <path
         id="path6413"
         style="opacity:1;fill:#000000;fill-opacity:0;stroke:#080808;stroke-width:0.79374999;stroke-linecap:round;stroke-linejoin:miter;stroke-miterlimit:4;stroke-dasharray:none;stroke-opacity:1"
         d="m 83.285363,213.50813 c 0,4.54569 -1.805766,10.60065 -5.020052,16.45622 -3.214285,4.47218 -7.573791,7.75035 -12.119477,9.3563 -4.545685,1.36537 -8.905191,1.02151 -12.119476,-0.68409 -3.214286,-1.79611 -5.020052,-4.6961 -5.020052,-7.78227 0,-3.08625 1.805766,-5.98632 5.020052,-7.7825 3.214285,-1.7054 7.573791,-2.04906 12.119476,-0.68352 4.545686,1.606 8.905192,4.88419 12.119477,9.35635 3.214286,5.85519 5.020052,11.90988 5.020052,16.45556 0,0 0,0 0,0"
         inkscape:connector-curvature="0" />
      <path
         id="path6415"
         style="opacity:1;fill:#000000;fill-opacity:0;stroke:#0a0a0a;stroke-width:0.79374999;stroke-linecap:round;stroke-linejoin:miter;stroke-miterlimit:4;stroke-dasharray:none;stroke-opacity:1"
         d="m 86.998692,215.45368 c 0,5.53052 -2.196991,12.33982 -6.10766,18.59553 -3.91067,5.02747 -9.214676,8.53172 -14.745198,9.95755 -5.530521,1.21223 -10.834527,0.31317 -14.745196,-2.25803 -3.910669,-2.65155 -6.10766,-6.65975 -6.10766,-10.89446 0,-4.23477 2.196991,-8.24304 6.10766,-10.89466 3.910669,-2.57101 9.214675,-3.46989 14.745196,-2.25751 5.530522,1.42586 10.834528,4.93013 14.745198,9.95759 3.910669,6.25537 6.10766,13.06443 6.10766,18.59495 0,0 0,0 0,0"
         inkscape:connector-curvature="0" />
      <path
         id="path6417"
         style="opacity:1;fill:#000000;fill-opacity:0;stroke:#0c0c0c;stroke-width:0.79374999;stroke-linecap:round;stroke-linejoin:miter;stroke-miterlimit:4;stroke-dasharray:none;stroke-opacity:1"
         d="m 91.329426,217.7227 c 0,6.67911 -2.653263,14.36816 -7.376103,21.09054 -4.72284,5.67509 -11.128385,9.44301 -17.807488,10.65877 -6.679104,1.03362 -13.084648,-0.51294 -17.807488,-4.09366 -4.722839,-3.64923 -7.376102,-8.94988 -7.376102,-14.52409 0,-5.57427 2.653263,-10.87498 7.376102,-14.52427 4.72284,-3.58057 11.128384,-5.12697 17.807488,-4.09322 6.679103,1.21579 13.084648,4.98372 17.807488,10.6588 4.72284,6.72209 7.376103,14.41094 7.376103,21.09004 0,0 0,0 0,0"
         inkscape:connector-curvature="0" />
      <path
         id="path6419"
         style="opacity:1;fill:#000000;fill-opacity:0;stroke:#0f0f0f;stroke-width:0.79374999;stroke-linecap:round;stroke-linejoin:miter;stroke-miterlimit:4;stroke-dasharray:none;stroke-opacity:1"
         d="m 96.351542,220.35397 c 0,8.01105 -3.182378,16.72032 -8.847047,23.98385 -5.664669,6.42612 -13.347609,10.4998 -21.35866,11.47194 -8.011051,0.82651 -15.69399,-1.47092 -21.358659,-6.22234 -5.664668,-4.80619 -8.847046,-11.60563 -8.847046,-18.73318 0,-7.1276 3.182378,-13.92709 8.847046,-18.73333 5.664669,-4.75128 13.347608,-7.04859 21.358659,-6.22198 8.011051,0.97216 15.693991,5.04585 21.35866,11.47196 5.664669,7.26331 8.847047,15.9724 8.847047,23.98345 0,0 0,0 0,0"
         inkscape:connector-curvature="0" />
      <path
         id="path6421"
         style="opacity:1;fill:#000000;fill-opacity:0;stroke:#111111;stroke-width:0.79374999;stroke-linecap:round;stroke-linejoin:miter;stroke-miterlimit:4;stroke-dasharray:none;stroke-opacity:1"
         d="m 102.1447,223.38922 c 0,9.54749 -3.792724,19.43359 -10.543822,27.32138 -6.751097,7.29243 -15.90755,11.71882 -25.455043,12.40995 -9.547492,0.58759 -18.703945,-2.576 -25.455041,-8.67783 -6.751097,-6.14078 -10.543824,-14.66912 -10.543824,-23.5885 0,-8.91942 3.792727,-17.4478 10.543824,-23.58861 6.751096,-6.10174 15.907549,-9.26524 25.455041,-8.67758 9.547493,0.69115 18.703946,5.11754 25.455043,12.40997 6.751098,7.88763 10.543822,17.77361 10.543822,27.3211 0,0 0,0 0,0"
         inkscape:connector-curvature="0" />
      <path
         id="path6423"
         style="opacity:1;fill:#000000;fill-opacity:0;stroke:#151515;stroke-width:0.79374999;stroke-linecap:round;stroke-linejoin:miter;stroke-miterlimit:4;stroke-dasharray:none;stroke-opacity:1"
         d="m 108.79447,226.87327 c 0,11.31112 -4.49333,22.54807 -12.491496,31.15242 -7.998171,8.28685 -18.846018,13.11809 -30.157138,13.48665 -11.311121,0.31335 -22.158967,-3.84447 -30.157136,-11.4964 -7.99817,-7.6727 -12.491495,-18.18559 -12.491495,-29.16175 0,-10.97618 4.493325,-21.48909 12.491495,-29.16181 7.998169,-7.65188 18.846015,-11.80965 30.157136,-11.49626 11.31112,0.36857 22.158967,5.19981 30.157138,13.48666 7.998166,8.60426 12.491496,19.84115 12.491496,31.15227 0,0 0,0 0,0"
         inkscape:connector-curvature="0" />
    </g>
  </g>
</svg>
